# This file uses centimeters as units for non-parametric coordinates.

mtllib Robolaser.mtl
v 0.365285 24.865246 0.691427
v 11.431049 24.865246 0.691427
v 0.365285 25.748631 1.071592
v 11.431049 25.748631 1.071592
v 0.365285 25.748631 -1.071592
v 11.431049 25.748631 -1.071592
v 0.365285 24.865246 -0.691427
v 11.431049 24.865246 -0.691427
v 11.431049 24.365780 -0.230476
v 11.431049 24.365780 0.230476
v 0.365285 23.947254 -0.230476
v 0.365285 23.947254 0.230476
v 11.431049 25.748631 0.373197
v 11.431049 25.748631 -0.373197
v 0.365285 25.748631 0.230476
v 0.365285 25.748631 -0.230476
v 11.431049 26.107403 0.230476
v 0.365285 26.107403 0.230476
v 11.431049 26.107403 -0.230476
v 0.365285 26.107403 -0.230476
v 11.431049 25.038132 1.071592
v 0.365285 25.038132 1.071592
v 0.365285 25.038132 -1.071592
v 11.431049 25.038132 -1.071592
v 12.171665 25.038132 0.230476
v 11.915125 24.365780 0.230476
v 11.915125 24.365780 -0.230476
v 12.171665 25.038132 -0.230475
v 12.171669 25.748631 0.373197
v 12.171669 25.748631 -0.373197
v 11.915123 25.038132 -1.219880
v 11.915125 25.748631 -1.219880
v 11.915123 25.038132 1.219880
v 11.915125 25.748631 1.219880
v 12.824537 25.605904 0.230476
v 12.824537 25.180859 0.230476
v 12.824537 25.180859 -0.230475
v 12.824537 25.605904 -0.230476
v 11.606586 26.302639 0.230476
v 11.606586 26.302639 -0.230476
v 11.915125 26.302639 0.230476
v 11.915125 26.302639 -0.230476
v 0.116162 23.662407 0.963956
v -5.241187 25.797829 1.322486
v 0.116162 25.797829 1.322486
v -5.241187 25.797829 -1.322486
v 0.116162 25.797829 -1.322486
v 0.116162 23.662407 -0.963956
v 0.116162 24.409805 0.963956
v 0.116162 25.039753 1.322486
v 0.116162 24.409801 -0.963956
v 0.116162 25.039753 -1.322486
v -3.013949 25.797829 1.322486
v -3.013949 25.797829 -1.322486
v 0.132113 25.797829 -0.230476
v -1.271344 25.797829 -0.886688
v -5.563460 25.797829 -0.886688
v 0.132113 25.797829 0.230476
v -1.271344 25.797829 0.886688
v -5.563460 25.797829 0.886688
v -1.271344 26.130241 0.886688
v -5.241187 26.130241 0.886688
v -1.271344 26.130241 -0.886688
v -5.241187 26.130241 -0.886688
v -3.216213 23.662407 1.115830
v -3.216213 23.662407 -1.115830
v -5.767948 23.875950 -1.057989
v -5.767948 23.875950 1.057989
v -5.767948 25.584290 1.057989
v -5.767948 25.584290 0.709351
v -5.767948 25.584290 -0.709351
v -5.767948 25.584290 -1.057989
v -4.482192 24.664787 -1.322486
v -5.241187 23.662407 -1.322486
v -2.998531 25.004177 -1.322486
v -1.805126 24.221279 -0.963956
v -1.728034 23.662407 -0.963956
v -5.241187 23.662407 1.322486
v -1.728034 23.662407 0.963956
v -4.482192 24.664787 1.322486
v -2.998531 25.004177 1.322486
v -1.805126 24.221279 0.963956
vt 0.106004 0.461194
vt 0.143465 0.093234
vt 0.157065 0.094576
vt 0.117091 0.466331
vt 0.142359 0.468582
vt 0.181747 0.097092
vt 0.205139 0.099870
vt 0.171467 0.471659
vt 0.253291 0.480976
vt 0.292782 0.109033
vt 0.306994 0.109729
vt 0.060408 0.460101
vt 0.112519 0.090181
vt 0.075881 0.461628
vt 0.091353 0.463154
vt 0.127992 0.091708
vt 0.198959 0.474599
vt 0.244664 0.104097
vt 0.268115 0.106328
vt 0.228066 0.477747
vt 0.177484 0.472298
vt 0.217171 0.101164
vt 0.232630 0.102818
vt 0.192943 0.473952
vt 0.338143 0.084095
vt 0.129594 0.075459
vt 0.330792 0.111276
vt 0.324008 0.088215
vt 0.273430 0.061715
vt 0.297781 0.059577
vt 0.293101 0.092635
vt 0.271269 0.090209
vt 0.223236 0.044452
vt 0.224760 0.030196
vt 0.240220 0.031850
vt 0.238695 0.046105
vt 0.160205 0.078477
vt 0.162540 0.045171
vt 0.185906 0.052350
vt 0.182069 0.080667
vt 0.362720 0.090633
vt 0.361984 0.107464
vt 0.345546 0.106372
vt 0.318276 0.121989
vt 0.247319 0.079265
vt 0.229986 0.096580
vt 0.221074 0.095627
vt 0.220544 0.085104
vt 0.232729 0.086407
vt 0.207794 0.075038
vt 0.247000 0.079217
vt 0.130444 0.066847
vt 0.208116 0.075059
vt 0.216107 0.065836
vt 0.195515 0.053577
vt 0.210917 0.037118
vt 0.227103 0.008300
vt 0.242562 0.009953
vt 0.263859 0.060886
vt 0.241140 0.068514
vt 0.252287 0.041542
vt 0.120744 0.656415
vt 0.128735 0.581716
vt 0.149603 0.524835
vt 0.134203 0.668787
vt 0.213988 0.694178
vt 0.250176 0.644514
vt 0.201897 0.763638
vt 0.108839 0.831800
vt 0.183657 0.837929
vt 0.165056 0.900076
vt 0.113415 0.891414
vt 0.189338 0.753674
vt 0.121832 0.746450
vt 0.124665 0.689324
vt 0.137030 0.688827
vt 0.186677 0.694140
vt 0.198657 0.697242
vt 0.102251 0.942894
vt 0.166911 0.949813
vt 0.141289 0.956734
vt 0.125829 0.955080
vt 0.251493 0.488669
vt 0.227763 0.486343
vt 0.197298 0.482327
vt 0.094000 0.471948
vt 0.117185 0.474332
vt 0.140836 0.477046
vt 0.164230 0.974879
vt 0.153455 0.989177
vt 0.171456 0.479563
vt 0.244117 0.593536
vt 0.217444 0.591206
vt 0.080196 0.535517
vt 0.061729 0.530927
vt 0.068345 0.469075
vt 0.102172 0.578351
vt 0.274641 0.491384
vt 0.274656 0.556320
vt 0.293677 0.555739
vt 0.300293 0.493887
vt 0.080184 0.720914
vt 0.209080 0.531198
vt 0.193680 0.675149
vt 0.134166 0.669127
vt 0.148410 0.535983
vt 0.207887 0.542346
vt 0.193644 0.675490
vt 0.131047 0.682190
vt 0.013715 0.609044
vt 0.023617 0.602006
vt 0.324076 0.642247
vt 0.193928 0.688918
vt 0.315888 0.633273
vt 0.107443 0.753263
vt 0.110330 0.683086
vt 0.246161 0.869598
vt 0.187642 0.918486
vt 0.239169 0.802299
vt 0.091163 0.901375
vt 0.046774 0.848709
vt 0.065962 0.783710
vt 0.265727 0.478269
vt 0.107075 0.984214
vt 0.099569 0.967961
vt 0.097046 0.088655
vt 0.085466 0.626894
vt 0.209453 0.665905
vt 0.235446 0.737529
vt 0.114082 0.074328
vn 0.000000 -0.910291 0.413969
vn 0.000000 -0.910291 0.413969
vn 0.000000 -0.910291 0.413969
vn 0.000000 -0.910291 0.413969
vn 0.000000 1.000000 0.000000
vn 0.000000 1.000000 0.000000
vn 0.000000 1.000000 0.000000
vn 0.000000 1.000000 0.000000
vn 0.000000 -0.910291 -0.413969
vn 0.000000 -0.910291 -0.413969
vn 0.000000 -0.910291 -0.413969
vn 0.000000 -0.910291 -0.413969
vn 0.010310 -0.545190 -0.838249
vn 0.010310 -0.545190 -0.838249
vn 0.010310 -0.545190 -0.838249
vn 0.010310 -0.545190 -0.838249
vn 0.010310 -0.545190 0.838249
vn 0.010310 -0.545190 0.838249
vn 0.010310 -0.545190 0.838249
vn 0.010310 -0.545190 0.838249
vn 0.037795 -0.999286 0.000000
vn 0.037795 -0.999286 0.000000
vn 0.037795 -0.999286 0.000000
vn 0.037795 -0.999286 0.000000
vn 0.000000 1.000000 0.000000
vn 0.000000 1.000000 0.000000
vn 0.000000 1.000000 0.000000
vn 0.000000 1.000000 0.000000
vn 0.000000 1.000000 0.000000
vn 0.000000 1.000000 0.000000
vn 0.000000 1.000000 0.000000
vn 0.000000 1.000000 0.000000
vn 0.934300 -0.356487 0.000000
vn 0.934300 -0.356487 0.000000
vn 0.934300 -0.356487 0.000000
vn 0.934300 -0.356488 0.000000
vn -0.006325 0.195077 0.980768
vn -0.006325 0.195077 0.980767
vn -0.006325 0.195077 0.980768
vn -0.006325 0.195077 0.980768
vn -0.006325 0.195077 -0.980767
vn -0.006325 0.195077 -0.980768
vn -0.006325 0.195077 -0.980768
vn -0.006325 0.195077 -0.980768
vn 0.000000 0.000000 1.000000
vn 0.000000 0.000000 1.000000
vn 0.000000 0.000000 1.000000
vn 0.000000 0.000000 1.000000
vn 0.000000 0.000000 -1.000000
vn 0.000000 0.000000 -1.000000
vn 0.000000 0.000000 -1.000000
vn 0.000000 0.000000 -1.000000
vn 0.962751 -0.027025 -0.269037
vn 0.962751 -0.027025 -0.269037
vn 0.962751 -0.027025 -0.269037
vn 0.962751 -0.027025 -0.269037
vn 1.000000 0.000000 0.000000
vn 1.000000 0.000000 0.000000
vn 1.000000 0.000000 0.000000
vn 1.000000 0.000000 0.000000
vn 0.962751 -0.027024 0.269036
vn 0.962751 -0.027024 0.269037
vn 0.962751 -0.027024 0.269037
vn 0.962751 -0.027024 0.269036
vn 0.371449 -0.409164 0.833433
vn 0.371449 -0.409164 0.833433
vn 0.371449 -0.409164 0.833433
vn 0.371449 -0.409164 0.833433
vn 0.000000 -1.000000 0.000000
vn 0.000000 -1.000000 0.000000
vn 0.000000 -1.000000 0.000000
vn 0.000000 -1.000000 0.000000
vn 0.371450 -0.409162 -0.833434
vn 0.371450 -0.409162 -0.833434
vn 0.371450 -0.409162 -0.833434
vn 0.371450 -0.409162 -0.833434
vn 0.000000 0.369633 -0.929178
vn 0.000000 0.369633 -0.929178
vn 0.000000 0.369633 -0.929178
vn 0.000000 1.000000 0.000000
vn 0.000000 1.000000 0.000000
vn 0.000000 1.000000 0.000000
vn 0.000000 1.000000 0.000000
vn 0.000000 0.369633 0.929178
vn 0.000000 0.369633 0.929178
vn 0.000000 0.369633 0.929178
vn 0.176968 -0.971804 -0.155821
vn 0.176968 -0.971804 -0.155821
vn 0.176968 -0.971804 -0.155821
vn 0.176968 -0.971804 -0.155821
vn -0.292899 0.000001 -0.956144
vn -0.292899 0.000001 -0.956144
vn -0.292899 0.000001 -0.956144
vn -0.292899 0.000001 -0.956144
vn 0.000000 1.000000 -0.000002
vn 0.000000 1.000000 -0.000002
vn 0.000000 1.000000 -0.000002
vn 0.000000 1.000000 -0.000002
vn 0.176968 -0.971803 0.155823
vn 0.176968 -0.971803 0.155823
vn 0.176968 -0.971803 0.155823
vn 0.176968 -0.971803 0.155823
vn 0.000000 1.000000 0.000000
vn 0.000000 1.000000 0.000000
vn 0.000000 1.000000 0.000000
vn 0.000000 1.000000 0.000000
vn -0.292899 0.000001 0.956144
vn -0.292899 0.000001 0.956144
vn -0.292899 0.000001 0.956144
vn -0.292899 0.000001 0.956144
vn 0.107818 -0.123978 0.986410
vn 0.107818 -0.123978 0.986410
vn 0.107818 -0.123978 0.986410
vn 0.107818 -0.123978 0.986410
vn 0.213570 -0.976928 0.000000
vn 0.213570 -0.976928 0.000000
vn 0.213570 -0.976928 0.000000
vn 0.213570 -0.976928 0.000000
vn 0.107818 -0.123978 -0.986410
vn 0.107818 -0.123978 -0.986410
vn 0.107818 -0.123978 -0.986410
vn 0.107818 -0.123978 -0.986410
vn 0.213571 0.976928 0.000000
vn 0.213571 0.976928 0.000000
vn 0.213571 0.976928 0.000000
vn 0.213571 0.976928 0.000000
vn -0.743627 0.668595 0.000000
vn -0.743627 0.668595 0.000000
vn -0.743627 0.668595 0.000000
vn -0.743627 0.668595 0.000000
vn -0.072231 0.179092 0.981177
vn -0.072231 0.179092 0.981177
vn -0.072231 0.179092 0.981177
vn -0.072231 0.179092 0.981177
vn 0.907431 0.420201 0.000000
vn 0.907431 0.420201 0.000000
vn 0.907431 0.420201 0.000000
vn 0.907431 0.420201 0.000000
vn -0.072231 0.179092 -0.981177
vn -0.072231 0.179092 -0.981177
vn -0.072231 0.179092 -0.981177
vn -0.072231 0.179092 -0.981177
vn 0.000000 1.000000 -0.000001
vn 0.000000 1.000000 -0.000001
vn 0.000000 1.000000 -0.000001
vn 0.000000 1.000000 -0.000001
vn 0.000000 0.000000 -1.000000
vn 0.000000 0.000000 -1.000000
vn 0.000000 0.000000 -1.000000
vn 0.000000 -1.000000 0.000000
vn 0.000000 -1.000000 0.000000
vn 0.000000 -1.000000 0.000000
vn 0.000000 -1.000000 0.000000
vn -1.000000 -0.000000 0.000000
vn -1.000000 -0.000000 0.000000
vn -1.000000 -0.000000 0.000000
vn -1.000000 -0.000000 0.000000
vn -1.000000 -0.000000 0.000000
vn -1.000000 -0.000000 0.000000
vn 0.752731 -0.658328 0.000000
vn 0.752731 -0.658328 0.000000
vn 0.752731 -0.658328 0.000000
vn 0.752731 -0.658328 0.000000
vn 0.709606 0.000000 -0.704599
vn 0.709606 0.000000 -0.704599
vn 0.709606 0.000000 -0.704599
vn 0.709606 0.000000 -0.704599
vn 0.200726 0.979646 -0.001657
vn 0.200726 0.979646 -0.001657
vn 0.200726 0.979646 -0.001657
vn 0.200726 0.979646 -0.001657
vn 0.919689 -0.104740 0.378420
vn 0.919689 -0.104740 0.378420
vn 0.919689 -0.104740 0.378420
vn 0.919689 -0.104740 0.378420
vn 0.811716 -0.395462 0.429798
vn 0.811716 -0.395462 0.429798
vn 0.811716 -0.395462 0.429798
vn 0.811716 -0.395462 0.429798
vn 0.709606 0.000000 0.704599
vn 0.709606 0.000000 0.704599
vn 0.709606 0.000000 0.704599
vn 0.709606 0.000000 0.704599
vn 0.919689 -0.104740 -0.378419
vn 0.919689 -0.104740 -0.378419
vn 0.919689 -0.104740 -0.378419
vn 0.919689 -0.104740 -0.378419
vn 0.811717 -0.395460 -0.429798
vn 0.811717 -0.395460 -0.429798
vn 0.811717 -0.395460 -0.429798
vn 0.811717 -0.395460 -0.429798
vn 0.000000 1.000000 -0.000004
vn 0.000000 1.000000 -0.000004
vn 0.000000 1.000000 -0.000004
vn 0.000000 1.000000 -0.000004
vn 0.000000 0.000000 -1.000000
vn 0.000000 0.000000 -1.000000
vn 0.000000 0.000000 -1.000000
vn 0.000000 0.000000 -1.000000
vn 0.000000 -1.000000 0.000000
vn 0.000000 -1.000000 0.000000
vn 0.000000 -1.000000 0.000000
vn 0.000000 -1.000000 0.000000
vn 0.000000 0.000000 1.000000
vn 0.000000 0.000000 1.000000
vn 0.000000 0.000000 1.000000
vn 0.000000 0.000000 1.000000
vn 0.000000 0.000000 1.000000
vn 0.000000 0.000000 1.000000
vn 0.000000 0.000000 1.000000
vn 0.000000 0.000000 1.000000
vn 0.019549 -0.439310 0.898123
vn 0.019549 -0.439310 0.898123
vn 0.019549 -0.439310 0.898123
vn 0.019549 -0.439310 0.898123
vn 0.019549 -0.439310 -0.898123
vn 0.019549 -0.439310 -0.898123
vn 0.019549 -0.439310 -0.898123
vn 0.019549 -0.439310 -0.898123
vn 0.000000 0.000000 -1.000000
vn 0.000000 0.000000 -1.000000
vn 0.000000 0.000000 -1.000000
vn 0.000000 0.000000 -1.000000
vn 0.000000 0.000000 1.000000
vn 0.000000 0.000000 1.000000
vn 0.000000 0.000000 1.000000
vn 0.000000 0.000000 1.000000
vn 0.000000 1.000000 0.000005
vn 0.000000 1.000000 0.000005
vn 0.000000 1.000000 0.000005
vn 0.000000 1.000000 0.000005
vn 0.000000 1.000000 -0.000002
vn 0.000000 1.000000 -0.000002
vn 0.000000 1.000000 -0.000002
vn 0.000000 1.000000 -0.000002
vn 0.000000 1.000000 0.000000
vn 0.000000 1.000000 0.000000
vn 0.000000 1.000000 0.000000
vn 0.000000 1.000000 0.000000
vn 0.000000 1.000000 0.000000
vn 0.000000 1.000000 0.000000
vn 0.000000 1.000000 0.000000
vn 0.000000 1.000000 0.000000
vn -0.798770 0.601637 0.000000
vn -0.798770 0.601637 0.000000
vn -0.798770 0.601637 0.000000
vn -0.798770 0.601637 0.000000
vn 0.000000 0.000000 1.000000
vn 0.000000 0.000000 1.000000
vn 0.000000 0.000000 1.000000
vn 0.200726 0.979646 0.001657
vn 0.200726 0.979646 0.001657
vn 0.200726 0.979646 0.001657
vn 0.200726 0.979646 0.001657
vn 0.000000 0.000000 -1.000000
vn 0.000000 0.000000 -1.000000
vn 0.000000 0.000000 -1.000000
vn 0.000000 0.000000 1.000000
vn 0.000000 0.000000 1.000000
vn 0.000000 0.000000 1.000000
vn 0.000000 0.000000 1.000000
vn 1.000000 0.000000 0.000000
vn 1.000000 0.000000 0.000000
vn 1.000000 0.000000 0.000000
vn 1.000000 0.000000 0.000000
vn 0.000000 0.000000 -1.000000
vn 0.000000 0.000000 -1.000000
vn 0.000000 0.000000 -1.000000
vn 0.000000 0.000000 -1.000000
vn -0.717972 0.696072 0.000000
vn -0.717972 0.696072 0.000000
vn -0.717972 0.696072 0.000000
vn -0.717972 0.696072 0.000000
vn 0.000000 0.000000 -1.000000
vn 0.000000 0.000000 -1.000000
vn 0.000000 0.000000 -1.000000
vn 0.000000 0.000000 -1.000000
vn 0.000000 0.000000 1.000000
vn 0.000000 0.000000 1.000000
vn 0.000000 0.000000 1.000000
vn 0.000000 -1.000000 0.000000
vn 0.000000 -1.000000 0.000000
vn 0.000000 -1.000000 0.000000
vn 0.000000 -1.000000 0.000000
vn -0.375692 -0.926745 0.000000
vn -0.375692 -0.926745 0.000000
vn -0.375692 -0.926745 0.000000
vn -0.375692 -0.926745 0.000000
vn -0.448729 0.000000 0.893668
vn -0.448729 0.000000 0.893668
vn -0.448729 0.000000 0.893668
vn -0.448729 0.000000 0.893668
vn -0.594900 0.765743 0.244402
vn -0.594900 0.765743 0.244402
vn -0.594900 0.765743 0.244402
vn -0.594900 0.765743 0.244402
vn -0.722249 0.691633 0.000000
vn -0.722249 0.691633 0.000000
vn -0.722249 0.691633 0.000000
vn -0.722249 0.691633 0.000000
vn -0.594899 0.765742 -0.244405
vn -0.594899 0.765742 -0.244405
vn -0.594899 0.765742 -0.244405
vn -0.594899 0.765742 -0.244405
vn -0.448729 0.000000 -0.893668
vn -0.448729 0.000000 -0.893668
vn -0.448729 0.000000 -0.893668
vn -0.448729 0.000000 -0.893668
vn 0.152332 -0.117961 -0.981265
vn 0.152332 -0.117961 -0.981265
vn 0.152332 -0.117961 -0.981265
vn 0.152332 -0.117961 -0.981265
vn 0.069610 -0.116347 -0.990766
vn 0.069610 -0.116347 -0.990766
vn 0.069610 -0.116347 -0.990766
vn 0.069610 -0.116347 -0.990766
vn 0.152332 -0.117961 0.981265
vn 0.152332 -0.117961 0.981265
vn 0.152332 -0.117961 0.981265
vn 0.152332 -0.117961 0.981265
vn 0.069610 -0.116347 0.990766
vn 0.069610 -0.116347 0.990766
vn 0.069610 -0.116347 0.990766
vn 0.069610 -0.116347 0.990766
s off
usemtl initialShadingGroup
f 1/1/1 2/2/2 21/3/3 22/4/4
f 3/5/5 4/6/6 13/7/7 15/8/8
f 23/9/9 24/10/10 8/11/11 7/123/12
f 7/12/13 8/126/14 9/13/15 11/14/16
f 12/15/17 10/16/18 2/2/19 1/1/20
f 11/14/21 9/13/22 10/16/23 12/15/24
f 16/17/25 14/18/26 6/19/27 5/20/28
f 18/21/29 17/22/30 19/23/31 20/24/32
f 25/25/33 26/43/34 27/27/35 28/28/36
f 15/8/37 13/7/38 17/22/39 18/21/40
f 14/18/41 16/17/42 20/24/43 19/23/44
f 22/4/45 21/3/46 4/6/47 3/5/48
f 5/20/49 6/19/50 24/10/51 23/9/52
f 30/29/53 28/30/54 31/31/55 32/32/56
f 35/33/57 36/34/58 37/35/59 38/36/60
f 33/37/61 25/38/62 29/39/63 34/40/64
f 2/41/65 10/42/66 26/43/67 25/25/68
f 10/16/69 9/13/70 27/130/71 26/26/72
f 9/44/73 8/11/74 28/28/75 27/27/76
f 14/18/77 19/23/78 30/45/79
f 40/46/80 39/47/81 41/48/82 42/49/83
f 17/22/84 13/7/85 29/50/86
f 8/11/87 24/10/88 31/31/89 28/28/90
f 24/10/91 6/19/92 32/32/93 31/31/94
f 6/19/95 14/18/96 30/51/97 32/32/98
f 21/3/99 2/2/100 25/52/101 33/37/102
f 13/7/103 4/6/104 34/40/105 29/53/106
f 4/6/107 21/3/108 33/37/109 34/40/110
f 29/54/111 25/55/112 36/56/113 35/33/114
f 25/57/115 28/58/116 37/35/117 36/34/118
f 28/59/119 30/60/120 38/36/121 37/61/122
f 30/60/123 29/54/124 35/33/125 38/36/126
f 19/23/127 17/22/128 39/47/129 40/46/130
f 17/22/131 29/50/132 41/48/133 39/47/134
f 29/54/135 30/60/136 42/49/137 41/48/138
f 30/45/139 19/23/140 40/46/141 42/49/142
f 44/62/143 53/63/144 59/64/145 60/65/146
f 46/66/147 73/129/148 74/68/149
f 65/69/150 66/70/151 77/71/152 79/72/153
f 67/73/154 68/74/155 69/75/156 70/76/157 71/77/158 72/78/159
f 43/79/160 48/80/161 11/81/162 12/82/163
f 23/9/164 52/83/165 47/84/166 5/20/167
f 47/84/168 55/85/169 16/17/170 5/20/171
f 1/124/172 49/125/173 43/79/174 12/82/175
f 22/4/176 50/87/177 49/86/178 1/1/179
f 45/88/180 50/87/181 22/4/182 3/5/183
f 48/80/184 51/89/185 7/90/186 11/81/187
f 7/123/188 51/98/189 52/83/190 23/9/191
f 58/91/192 59/64/193 53/63/194 45/88/195
f 52/83/196 75/92/197 54/93/198 47/84/199
f 79/72/200 77/71/201 48/80/202 43/79/203
f 49/86/204 82/94/205 79/95/206 43/96/207
f 53/63/208 81/97/209 50/87/210 45/88/211
f 50/87/212 81/97/213 82/94/214 49/86/215
f 51/98/216 76/99/217 75/92/218 52/83/219
f 77/100/220 76/99/221 51/98/222 48/101/223
f 44/62/224 80/127/225 81/97/226 53/63/227
f 54/93/228 56/103/229 55/85/230 47/84/231
f 57/104/232 56/103/233 54/93/234 46/128/235
f 55/85/236 56/103/237 59/64/238 58/91/239
f 62/105/240 61/106/241 63/107/242 64/108/243
f 20/24/244 55/85/245 58/91/246 18/21/247
f 18/21/248 58/91/249 15/8/250
f 15/8/251 58/91/252 45/88/253 3/5/254
f 16/17/255 55/85/256 20/24/257
f 60/109/258 59/110/259 61/111/260 62/105/261
f 59/64/262 56/103/263 63/107/264 61/106/265
f 56/112/266 57/113/267 64/108/268 63/114/269
f 57/113/270 60/109/271 62/105/272 64/108/273
f 46/128/274 54/93/275 75/92/276 73/67/277
f 78/115/278 80/102/279 44/116/280
f 74/68/281 66/70/282 65/69/283 78/115/284
f 74/68/285 78/115/286 68/74/287 67/73/288
f 78/115/289 44/116/290 69/75/291 68/74/292
f 44/116/293 60/109/294 70/76/295 69/75/296
f 60/109/297 57/113/298 71/77/299 70/76/300
f 57/113/301 46/66/302 72/78/303 71/77/304
f 46/66/305 74/68/306 67/73/307 72/78/308
f 77/71/309 66/70/310 75/117/311 76/118/312
f 73/119/313 75/117/314 66/70/315 74/68/316
f 82/120/317 81/121/318 65/69/319 79/72/320
f 81/121/321 80/122/322 78/115/323 65/69/324
