# This file uses centimeters as units for non-parametric coordinates.

mtllib RoboSponsonGun.mtl
v 7.889027 7.253534 -7.866680
v 7.846937 6.939963 -7.773894
v 7.710732 6.939963 -7.473635
v 7.668643 7.253534 -7.380849
v 7.778835 7.447332 -7.623764
v 5.149257 7.253534 -9.109494
v 5.107167 6.939963 -9.016708
v 4.970963 6.939963 -8.716449
v 4.928874 7.253534 -8.623663
v 5.039065 7.447332 -8.866578
v 7.778835 7.166865 -7.623764
v 7.811909 5.848926 -7.696675
v 7.683449 5.958517 -7.413487
v 7.686810 6.288124 -7.420896
v 7.817346 6.382243 -7.708661
v 7.894661 6.110803 -7.879103
v 5.072140 5.848926 -8.939489
v 4.943680 5.958517 -8.656301
v 4.947040 6.288124 -8.663710
v 5.077576 6.382243 -8.951475
v 5.154892 6.110803 -9.121917
v 7.778835 6.117723 -7.623764
v 5.158030 7.847257 -9.402397
v 3.942698 7.847258 -9.953695
v 3.335033 6.691524 -10.229345
v 3.942698 5.535790 -9.953696
v 5.158030 5.535790 -9.402397
v 5.765695 6.691524 -9.126748
v 4.864817 8.151343 -8.331024
v 3.329719 8.151344 -9.027375
v 2.562169 6.691525 -9.375551
v 3.329718 5.231704 -9.027376
v 4.864817 5.231704 -8.331024
v 5.632365 6.691524 -7.982849
v 4.739298 6.691524 -10.094549
vt 0.289226 0.821937
vt 0.297388 0.795887
vt 0.540952 0.872525
vt 0.532998 0.897923
vt 0.263181 0.905105
vt 0.271544 0.878401
vt 0.515213 0.954713
vt 0.506850 0.981417
vt 0.279498 0.853003
vt 0.523167 0.929316
vt 0.284414 0.837307
vt 0.528083 0.913619
vt 0.274931 0.803152
vt 0.274682 0.779349
vt 0.252216 0.796032
vt 0.261141 0.822555
vt 0.270453 0.892458
vt 0.278164 0.867217
vt 0.522360 0.941825
vt 0.514648 0.967065
vt 0.286338 0.840463
vt 0.530534 0.915071
vt 0.293291 0.817707
vt 0.538370 0.889422
vt 0.299699 0.796730
vt 0.543012 0.874231
vt 0.265485 0.908717
vt 0.509681 0.983325
vt 0.255311 0.794640
vt 0.277656 0.777793
vt 0.278077 0.801593
vt 0.264429 0.821096
vt 0.606441 0.817941
vt 0.616187 0.895779
vt 0.566010 0.930695
vt 0.549204 0.796474
vt 0.685099 0.923226
vt 0.691777 0.976567
vt 0.745116 0.879636
vt 0.802353 0.901103
vt 0.735370 0.801798
vt 0.785548 0.766882
vt 0.666458 0.774351
vt 0.659779 0.721010
vt 0.675779 0.848789
vn 0.392885 -0.309019 -0.866111
vn 0.392885 -0.309019 -0.866111
vn 0.392885 -0.309019 -0.866111
vn 0.392885 -0.309019 -0.866111
vn 0.000000 -1.000000 0.000000
vn 0.000000 -1.000000 0.000000
vn 0.000000 -1.000000 0.000000
vn 0.000000 -1.000000 0.000000
vn -0.392885 -0.309019 0.866111
vn -0.392885 -0.309019 0.866111
vn -0.392885 -0.309019 0.866111
vn -0.392885 -0.309019 0.866111
vn -0.242817 0.809017 0.535286
vn -0.242817 0.809017 0.535286
vn -0.242817 0.809017 0.535286
vn -0.242817 0.809017 0.535286
vn 0.242816 0.809018 -0.535286
vn 0.242816 0.809018 -0.535286
vn 0.242816 0.809018 -0.535286
vn 0.242816 0.809018 -0.535286
vn 0.910684 -0.000002 0.413104
vn 0.910684 0.000000 0.413103
vn 0.910683 -0.000001 0.413106
vn 0.910682 -0.000002 0.413109
vn 0.910681 0.000000 0.413109
vn 0.910683 0.000000 0.413106
vn -0.137310 -0.943143 0.302700
vn -0.137310 -0.943143 0.302699
vn -0.137310 -0.943143 0.302700
vn -0.137310 -0.943143 0.302699
vn -0.412978 0.024672 0.910407
vn -0.412978 0.024672 0.910407
vn -0.412978 0.024672 0.910407
vn -0.412978 0.024672 0.910407
vn -0.117925 0.958391 0.259964
vn -0.117925 0.958391 0.259964
vn -0.117925 0.958391 0.259964
vn -0.117925 0.958391 0.259964
vn 0.340097 0.567648 -0.749740
vn 0.340097 0.567648 -0.749740
vn 0.340097 0.567648 -0.749740
vn 0.340097 0.567648 -0.749740
vn 0.328116 -0.607565 -0.723329
vn 0.328116 -0.607565 -0.723329
vn 0.328116 -0.607565 -0.723329
vn 0.328116 -0.607565 -0.723329
vn 0.910683 0.000000 0.413106
vn 0.910684 0.000001 0.413103
vn 0.910684 0.000000 0.413103
vn 0.910683 -0.000001 0.413105
vn 0.910685 -0.000001 0.413102
vn 0.910685 0.000001 0.413100
vn 0.110369 0.963650 -0.243306
vn 0.110369 0.963650 -0.243306
vn 0.110369 0.963650 -0.243306
vn 0.110369 0.963650 -0.243306
vn -0.649638 0.481826 -0.588060
vn -0.649638 0.481826 -0.588060
vn -0.649638 0.481826 -0.588060
vn -0.649638 0.481826 -0.588060
vn -0.649638 -0.481825 -0.588061
vn -0.649638 -0.481825 -0.588061
vn -0.649638 -0.481825 -0.588061
vn -0.649638 -0.481825 -0.588061
vn 0.110368 -0.963650 -0.243306
vn 0.110368 -0.963650 -0.243306
vn 0.110368 -0.963650 -0.243306
vn 0.110368 -0.963650 -0.243306
vn 0.870375 -0.481825 0.101449
vn 0.870375 -0.481825 0.101449
vn 0.870375 -0.481825 0.101449
vn 0.870375 -0.481825 0.101449
vn 0.870375 0.481825 0.101449
vn 0.870375 0.481825 0.101449
vn 0.870375 0.481825 0.101449
vn 0.870375 0.481825 0.101449
vn 0.243172 0.280763 -0.928461
vn 0.538413 0.280764 -0.794533
vn 0.413104 0.000000 -0.910684
vn 0.095551 0.000000 -0.995425
vn 0.243172 -0.280763 -0.928461
vn 0.538413 -0.280763 -0.794533
vn 0.686034 -0.000000 -0.727569
s off
usemtl initialShadingGroup
f 1/1/1 2/2/2 7/3/3 6/4/4
f 2/5/5 3/6/6 8/7/7 7/8/8
f 3/6/9 4/9/10 9/10/11 8/7/12
f 4/9/13 5/11/14 10/12/15 9/10/16
f 5/11/17 1/1/18 6/4/19 10/12/20
s 1
f 2/2/21 1/1/22 11/13/23
f 3/14/24 2/2/21 11/13/23
f 4/15/25 3/14/24 11/13/23
f 5/16/26 4/15/25 11/13/23
f 1/1/22 5/16/26 11/13/23
s off
f 12/17/27 13/18/28 18/19/29 17/20/30
f 13/18/31 14/21/32 19/22/33 18/19/34
f 14/21/35 15/23/36 20/24/37 19/22/38
f 15/23/39 16/25/40 21/26/41 20/24/42
f 16/27/43 12/17/44 17/20/45 21/28/46
s 2
f 13/29/47 12/30/48 22/31/49
f 14/32/50 13/29/47 22/31/49
f 15/23/51 14/32/50 22/31/49
f 16/25/52 15/23/51 22/31/49
f 12/30/48 16/25/52 22/31/49
s off
f 23/33/53 24/34/54 30/35/55 29/36/56
f 24/34/57 25/37/58 31/38/59 30/35/60
f 25/37/61 26/39/62 32/40/63 31/38/64
f 26/39/65 27/41/66 33/42/67 32/40/68
f 27/41/69 28/43/70 34/44/71 33/42/72
f 28/43/73 23/33/74 29/36/75 34/44/76
s 3
f 24/34/77 23/33/78 35/45/79
f 25/37/80 24/34/77 35/45/79
f 26/39/81 25/37/80 35/45/79
f 27/41/82 26/39/81 35/45/79
f 28/43/83 27/41/82 35/45/79
f 23/33/78 28/43/83 35/45/79
