# This file uses centimeters as units for non-parametric coordinates.

mtllib RobolaserMount.mtl
v 0.736573 16.005293 -3.849828
v -3.113254 16.005293 -5.444479
v -6.963082 16.005293 -3.849828
v -8.557733 16.005293 0.000000
v -6.963082 16.005293 3.849828
v -3.113254 16.005293 5.444479
v 0.736574 16.005293 3.849828
v 2.331224 16.005293 0.000000
v 0.736573 22.133074 -3.849828
v -3.113254 22.133074 -5.444479
v -6.963082 22.133074 -3.849828
v -8.557733 22.133074 0.000000
v -6.963082 22.133074 3.849828
v -3.113254 22.133074 5.444479
v 0.736574 22.133074 3.849828
v 2.331224 22.133074 0.000000
v -0.694288 23.662411 -2.418966
v -3.113255 23.662411 -3.420935
v -3.113254 23.662411 0.000000
v -5.532220 23.662411 -2.418966
v -6.534189 23.662411 -0.000000
v -5.532220 23.662411 2.418966
v -3.113255 23.662411 3.420935
v -0.694288 23.662411 2.418966
v 0.307681 23.662411 0.000000
v -5.241187 23.662407 1.322486
v -1.728034 23.662407 0.963956
v -2.998531 25.004177 1.322486
v -1.805126 24.221279 0.963956
v -4.482192 24.664787 1.322486
v -4.826603 23.662407 2.116081
v -2.142618 23.662407 1.882181
v -2.201515 24.221279 1.804168
v -3.113255 25.004177 1.699644
v -4.246745 24.664787 1.819044
v -3.216212 23.662407 2.331961
v -3.164733 24.333294 2.015802
v -5.241187 23.662407 -1.322486
v -1.728034 23.662407 -0.963956
v -2.998531 25.004177 -1.322486
v -1.805126 24.221279 -0.963956
v -4.482192 24.664787 -1.322486
v -4.246745 24.664787 -1.819044
v -4.826603 23.662407 -2.116081
v -3.113255 25.004177 -1.699644
v -2.201515 24.221279 -1.804168
v -2.142618 23.662407 -1.882181
v -3.216212 23.662407 -2.331961
v -3.164733 24.333294 -2.015802
vt 0.974288 0.769230
vt 0.974288 0.866630
vt 0.591893 0.477029
vt 0.622496 0.579291
vt 0.974288 0.964031
vt 0.819255 0.964031
vt 0.627318 0.477029
vt 0.651543 0.537064
vt 0.651543 0.416994
vt 0.974287 0.379629
vt 0.974287 0.477029
vt 0.826906 0.477029
vt 0.811604 0.377198
vt 0.974288 0.574429
vt 0.811605 0.576860
vt 0.799131 0.477029
vt 0.774907 0.416994
vt 0.774907 0.537064
vt 0.713225 0.563579
vt 0.713225 0.477029
vt 0.713225 0.614774
vt 0.713225 0.390480
vt 0.713225 0.339284
vt 0.622496 0.374768
vt 0.974288 0.671830
vt 0.819255 0.671830
vt 0.974287 0.184828
vt 0.974287 0.282228
vt 0.819255 0.282228
vt 0.819255 0.184828
vt 0.908724 0.149341
vt 0.904611 0.117443
vt 0.946508 0.113867
vt 0.986579 0.145589
vt 0.961919 0.159735
vt 0.957383 0.090787
vt 0.912499 0.168023
vt 0.833309 0.154707
vt 0.851627 0.137321
vt 0.795765 0.145700
vt 0.820939 0.103304
vt 0.897332 0.083998
vt 0.762651 0.164656
vt 0.764860 0.206648
vt 0.732701 0.206952
vt 0.751811 0.318342
vt 0.737736 0.282389
vt 0.752444 0.261859
vt 0.790351 0.287587
vt 0.713678 0.205776
vt 0.715102 0.155687
vt 0.725729 0.129318
vt 0.784020 0.150716
vt 0.798988 0.209266
vt 0.819255 0.866630
vt 0.819255 0.769230
vn 0.382684 0.000000 -0.923880
vn 0.382684 0.000000 -0.923880
vn 0.382684 0.000000 -0.923880
vn 0.382684 0.000000 -0.923880
vn -0.382683 0.000000 -0.923880
vn -0.382683 0.000000 -0.923880
vn -0.382683 0.000000 -0.923880
vn -0.382683 0.000000 -0.923880
vn -0.923880 0.000000 -0.382683
vn -0.923880 0.000000 -0.382683
vn -0.923880 0.000000 -0.382683
vn -0.923880 0.000000 -0.382683
vn -0.923880 0.000000 0.382683
vn -0.923880 0.000000 0.382683
vn -0.923880 0.000000 0.382683
vn -0.923880 0.000000 0.382683
vn -0.382683 0.000000 0.923880
vn -0.382683 0.000000 0.923880
vn -0.382683 0.000000 0.923880
vn -0.382683 0.000000 0.923880
vn 0.382683 0.000000 0.923880
vn 0.382683 0.000000 0.923880
vn 0.382683 0.000000 0.923880
vn 0.382683 0.000000 0.923880
vn 0.923880 0.000000 0.382683
vn 0.923880 0.000000 0.382683
vn 0.923880 0.000000 0.382683
vn 0.923880 0.000000 0.382683
vn 0.923880 0.000000 -0.382684
vn 0.923880 0.000000 -0.382684
vn 0.923880 0.000000 -0.382684
vn 0.923880 0.000000 -0.382684
vn 0.334318 0.881171 -0.334318
vn 0.000000 0.881172 -0.472797
vn 0.000000 1.000000 0.000000
vn -0.334318 0.881171 -0.334318
vn -0.472797 0.881172 0.000000
vn -0.334318 0.881171 0.334318
vn -0.000000 0.881171 0.472797
vn 0.334318 0.881171 0.334318
vn 0.472797 0.881172 -0.000000
vn 0.426345 0.797784 -0.426345
vn 0.000000 0.797784 -0.602943
vn -0.426345 0.797784 -0.426345
vn -0.602943 0.797784 0.000000
vn -0.426345 0.797784 0.426345
vn 0.000000 0.797784 0.602943
vn 0.426345 0.797784 0.426345
vn 0.602943 0.797785 0.000000
vn 0.240791 0.398569 0.884964
vn 0.240791 0.398569 0.884965
vn 0.240791 0.398569 0.884965
vn 0.899345 0.138366 0.414769
vn 0.899345 0.138366 0.414768
vn 0.899345 0.138366 0.414768
vn 0.899345 0.138366 0.414768
vn 0.597045 0.762038 0.250669
vn 0.597045 0.762038 0.250669
vn 0.597045 0.762038 0.250669
vn 0.597045 0.762038 0.250669
vn -0.249429 0.967780 0.034464
vn -0.249429 0.967780 0.034464
vn -0.249429 0.967780 0.034464
vn -0.249429 0.967780 0.034464
vn -0.744293 0.552629 0.375005
vn -0.744293 0.552629 0.375005
vn -0.744293 0.552629 0.375005
vn -0.744293 0.552629 0.375005
vn -0.033060 0.428136 0.903110
vn -0.033060 0.428136 0.903110
vn -0.033060 0.428136 0.903110
vn -0.095331 0.374035 0.922502
vn -0.095331 0.374035 0.922502
vn -0.095331 0.374035 0.922502
vn -0.095331 0.374035 0.922502
vn 0.309887 0.291900 0.904856
vn 0.309887 0.291900 0.904856
vn 0.309887 0.291900 0.904856
vn 0.309887 0.291900 0.904856
vn 0.240791 0.398569 -0.884964
vn 0.240791 0.398569 -0.884964
vn 0.240791 0.398569 -0.884964
vn -0.744293 0.552629 -0.375006
vn -0.744293 0.552629 -0.375006
vn -0.744293 0.552629 -0.375006
vn -0.744293 0.552629 -0.375006
vn -0.249429 0.967780 -0.034461
vn -0.249429 0.967780 -0.034461
vn -0.249429 0.967780 -0.034461
vn -0.249429 0.967780 -0.034461
vn 0.597045 0.762038 -0.250669
vn 0.597045 0.762038 -0.250669
vn 0.597045 0.762038 -0.250669
vn 0.597045 0.762038 -0.250669
vn 0.899345 0.138366 -0.414768
vn 0.899345 0.138366 -0.414769
vn 0.899345 0.138366 -0.414768
vn 0.899345 0.138366 -0.414768
vn -0.033060 0.428135 -0.903110
vn -0.033060 0.428135 -0.903110
vn -0.033060 0.428135 -0.903110
vn 0.309887 0.291900 -0.904856
vn 0.309887 0.291900 -0.904856
vn 0.309887 0.291900 -0.904856
vn 0.309887 0.291900 -0.904856
vn -0.095331 0.374036 -0.922502
vn -0.095331 0.374036 -0.922502
vn -0.095331 0.374036 -0.922502
vn -0.095331 0.374036 -0.922502
s off
usemtl initialShadingGroup
f 1/14/1 2/25/2 10/26/3 9/15/4
f 2/25/5 3/1/6 11/56/7 10/26/8
f 3/1/9 4/2/10 12/55/11 11/56/12
f 4/2/13 5/5/14 13/6/15 12/55/16
f 5/27/17 6/28/18 14/29/19 13/30/20
f 6/28/21 7/10/22 15/13/23 14/29/24
f 7/10/25 8/11/26 16/12/27 15/13/28
f 8/11/29 1/14/30 9/15/31 16/12/32
s 1
f 17/18/33 18/19/34 19/20/35
f 18/19/34 20/8/36 19/20/35
f 20/8/36 21/7/37 19/20/35
f 21/7/37 22/9/38 19/20/35
f 22/9/38 23/22/39 19/20/35
f 23/22/39 24/17/40 19/20/35
f 24/17/40 25/16/41 19/20/35
f 25/16/41 17/18/33 19/20/35
f 9/15/42 10/21/43 18/19/34 17/18/33
f 10/21/43 11/4/44 20/8/36 18/19/34
f 11/4/44 12/3/45 21/7/37 20/8/36
f 12/3/45 13/24/46 22/9/38 21/7/37
f 13/24/46 14/23/47 23/22/39 22/9/38
f 14/23/47 15/13/48 24/17/40 23/22/39
f 15/13/48 16/12/49 25/16/41 24/17/40
f 16/12/49 9/15/42 17/18/33 25/16/41
s off
f 34/31/50 37/32/51 33/33/52
f 27/34/53 29/35/54 33/33/55 32/36/56
f 29/35/57 28/37/58 34/31/59 33/33/60
f 28/37/61 30/38/62 35/39/63 34/31/64
f 30/38/65 26/40/66 31/41/67 35/39/68
f 35/39/69 37/32/70 34/31/71
f 31/41/72 36/42/73 37/32/74 35/39/75
f 33/33/76 37/32/77 36/42/78 32/36/79
f 46/43/80 49/44/81 45/45/82
f 38/46/83 42/47/84 43/48/85 44/49/86
f 42/47/87 40/50/88 45/45/89 43/48/90
f 40/50/91 41/51/92 46/43/93 45/45/94
f 41/51/95 39/52/96 47/53/97 46/43/98
f 49/44/99 43/48/100 45/45/101
f 48/54/102 49/44/103 46/43/104 47/53/105
f 44/49/106 43/48/107 49/44/108 48/54/109
