# This file uses centimeters as units for non-parametric coordinates.

mtllib RoboDoor.mtl
v -6.331130 2.724348 -8.729585
v -1.559773 2.724348 -8.304494
v -6.331130 9.953644 -8.729585
v -1.559773 9.953644 -8.304494
v -6.251901 9.953644 -9.618874
v -1.480544 9.953644 -9.193783
v -6.251902 2.724348 -9.618874
v -1.480544 2.724348 -9.193783
v -5.285170 9.651385 -9.532745
v -4.950623 9.953644 -9.502940
v -4.516863 9.953644 -9.464295
v -4.209213 9.651385 -9.436886
v -3.523233 9.651385 -9.375770
v -3.215583 9.953644 -9.348361
v -2.781823 9.953644 -9.309716
v -2.434815 9.651385 -9.278801
v -1.815091 9.651385 -9.223588
v -5.364398 9.651385 -8.643456
v -5.029851 9.953644 -8.613651
v -4.596091 9.953644 -8.575006
v -4.288442 9.651385 -8.547597
v -3.602462 9.651385 -8.486482
v -3.294812 9.953644 -8.459072
v -2.861052 9.953644 -8.420428
v -2.514044 9.651385 -8.389512
v -1.894320 9.651385 -8.334299
v -5.917354 9.651385 -9.589068
v -5.996583 9.651385 -8.699779
v -5.741877 2.724348 -9.573434
v -5.044194 3.146867 -9.511276
v -2.687558 3.146867 -9.301318
v -1.990569 2.724348 -9.239222
v -5.821106 2.724348 -8.684146
v -5.123423 3.146867 -8.621987
v -2.766787 3.146867 -8.412029
v -2.069798 2.724348 -8.349933
vt 0.761677 0.814905
vt 0.735394 0.814479
vt 0.735399 0.669680
vt 0.761682 0.669255
vt 0.594375 0.814478
vt 0.568092 0.814903
vt 0.568097 0.669252
vt 0.594380 0.669678
vt 0.604265 0.987253
vt 0.604263 0.967880
vt 0.622947 0.967879
vt 0.622949 0.987252
vt 0.594375 0.970925
vt 0.594377 0.987254
vt 0.632834 0.970924
vt 0.632836 0.989988
vt 0.645654 0.970924
vt 0.645657 0.989988
vt 0.654747 0.967879
vt 0.654749 0.987251
vt 0.675021 0.967878
vt 0.675024 0.987249
vt 0.684114 0.970923
vt 0.684116 0.989986
vt 0.696934 0.970922
vt 0.696936 0.989985
vt 0.707190 0.967877
vt 0.707192 0.987248
vt 0.725506 0.967877
vt 0.725508 0.987247
vt 0.735394 0.970921
vt 0.735396 0.987246
vt 0.609449 0.814052
vt 0.609449 0.828635
vt 0.594375 0.828635
vt 0.630069 0.809796
vt 0.630069 0.832892
vt 0.699721 0.809797
vt 0.699720 0.832892
vt 0.720320 0.814053
vt 0.720320 0.828636
vt 0.735394 0.828636
vt 0.707195 0.676195
vt 0.725511 0.676195
vt 0.675026 0.676194
vt 0.654752 0.676194
vt 0.684119 0.670105
vt 0.696939 0.670105
vt 0.622952 0.676194
vt 0.604267 0.676193
vt 0.632839 0.670104
vt 0.645660 0.670104
vn -0.088741 0.000000 0.996055
vn -0.088741 0.000000 0.996055
vn -0.088741 0.000000 0.996055
vn -0.088741 0.000000 0.996055
vn 0.296169 0.954771 0.026386
vn 0.296169 0.954771 0.026386
vn -0.296168 0.954771 -0.026386
vn -0.296168 0.954771 -0.026386
vn 0.088741 0.000000 -0.996055
vn 0.088741 0.000000 -0.996055
vn 0.088741 0.000000 -0.996055
vn 0.088741 0.000000 -0.996055
vn 0.000000 -1.000000 0.000000
vn 0.327766 -0.944308 0.029201
vn 0.327766 -0.944308 0.029201
vn 0.000000 -1.000000 0.000000
vn 0.996055 0.000000 0.088741
vn 0.996055 0.000000 0.088741
vn 0.996055 0.000000 0.088741
vn 0.996055 0.000000 0.088741
vn -0.996055 0.000000 -0.088741
vn -0.996055 0.000000 -0.088741
vn -0.996055 0.000000 -0.088741
vn -0.996055 0.000000 -0.088741
vn -0.299688 0.953664 -0.026700
vn -0.299688 0.953664 -0.026700
vn -0.666294 0.743323 -0.059362
vn -0.666294 0.743323 -0.059362
vn 0.296168 0.954771 0.026386
vn 0.296168 0.954771 0.026386
vn 0.358362 0.933037 0.031927
vn 0.358362 0.933037 0.031927
vn -0.374751 0.926524 -0.033387
vn -0.374751 0.926524 -0.033387
vn -0.288834 0.957034 -0.025733
vn -0.288834 0.957034 -0.025733
vn 0.288834 0.957033 0.025733
vn 0.288834 0.957033 0.025733
vn 0.374751 0.926524 0.033387
vn 0.374751 0.926524 0.033387
vn -0.363406 0.931068 -0.032377
vn -0.363406 0.931068 -0.032377
vn 0.666294 0.743323 0.059362
vn 0.666294 0.743323 0.059362
vn -0.327934 -0.944249 -0.029216
vn -0.327934 -0.944249 -0.029216
vn 0.000000 -1.000000 0.000000
vn 0.000000 -1.000000 0.000000
vn -0.135991 -0.990636 -0.012116
vn -0.135991 -0.990636 -0.012116
vn 0.135961 -0.990640 0.012113
vn 0.135961 -0.990640 0.012113
vn 0.088741 0.000000 -0.996055
vn 0.088741 0.000000 -0.996055
vn 0.088741 0.000000 -0.996055
vn 0.088741 0.000000 -0.996055
vn 0.088741 -0.000000 -0.996055
vn 0.088741 -0.000000 -0.996055
vn 0.088741 0.000000 -0.996055
vn 0.088741 0.000000 -0.996055
vn 0.088741 0.000000 -0.996055
vn 0.088741 0.000000 -0.996055
vn 0.088741 0.000000 -0.996055
vn 0.088741 0.000000 -0.996055
vn 0.088741 0.000000 -0.996055
vn 0.088741 0.000000 -0.996055
vn -0.088741 0.000000 0.996055
vn -0.088741 0.000000 0.996055
vn -0.088741 0.000000 0.996055
vn -0.088741 0.000000 0.996055
vn -0.088741 0.000000 0.996055
vn -0.088741 0.000000 0.996055
vn -0.088741 0.000000 0.996055
vn -0.088741 0.000000 0.996055
vn -0.088741 0.000000 0.996055
vn -0.088741 0.000000 0.996055
vn -0.088741 0.000000 0.996055
vn -0.088741 0.000000 0.996055
vn -0.088741 0.000000 0.996055
vn -0.088741 0.000000 0.996055
s 1
usemtl blinn1SG
f 21/19/1 34/37/2 35/39/3 22/21/4
s 2
f 27/9/5 28/10/6 18/11/7 9/12/8
s 3
f 31/38/9 16/43/10 17/44/11 32/40/12
s 4
f 7/5/13 29/33/14 33/34/15 1/35/16
s off
f 2/1/17 8/2/18 6/3/19 4/4/20
f 7/5/21 1/6/22 3/7/23 5/8/24
s 2
f 17/30/25 26/29/26 4/31/27 6/32/28
f 16/28/29 25/27/30 26/29/26 17/30/25
f 15/26/31 24/25/32 25/27/30 16/28/29
f 14/24/33 23/23/34 24/25/32 15/26/31
f 13/22/35 22/21/36 23/23/34 14/24/33
f 12/20/37 21/19/38 22/21/36 13/22/35
f 11/18/39 20/17/40 21/19/38 12/20/37
f 10/16/41 19/15/42 20/17/40 11/18/39
f 9/12/8 18/11/7 19/15/42 10/16/41
f 3/13/43 28/10/6 27/9/5 5/14/44
s 4
f 36/41/45 32/40/46 8/2/47 2/42/48
f 35/39/49 31/38/50 32/40/46 36/41/45
f 34/37/51 30/36/52 31/38/50 35/39/49
f 33/34/15 29/33/14 30/36/52 34/37/51
s 3
f 32/40/12 17/44/11 6/3/53 8/2/54
f 12/46/55 9/49/56 10/51/57 11/52/58
f 29/33/59 27/50/60 9/49/56 30/36/61
f 5/8/62 27/50/60 29/33/59 7/5/63
f 30/36/61 12/46/55 13/45/64 31/38/9
f 31/38/9 13/45/64 16/43/10
f 16/43/10 13/45/64 14/47/65 15/48/66
f 30/36/61 9/49/56 12/46/55
s 1
f 1/35/67 33/34/68 28/10/69 3/13/70
f 18/11/71 34/37/2 21/19/1
f 26/29/72 36/41/73 2/42/74 4/31/75
f 28/10/69 33/34/68 34/37/2 18/11/71
f 25/27/76 35/39/3 36/41/73 26/29/72
f 22/21/4 35/39/3 25/27/76
f 22/21/4 25/27/76 24/25/77 23/23/78
f 18/11/71 21/19/1 20/17/79 19/15/80
