# This file uses centimeters as units for non-parametric coordinates.

mtllib RoboSponson.mtl
v 5.260057 8.766023 -8.343255
v 3.078582 8.766024 -9.332816
v 1.987844 6.691525 -9.827596
v 3.078581 4.617025 -9.332816
v 5.260056 4.617025 -8.343255
v 6.350793 6.691524 -7.848475
v 4.781849 8.766023 -7.289053
v 2.600374 8.766024 -8.278614
v 1.509637 6.691525 -8.773394
v 2.600374 4.617025 -8.278614
v 4.781849 4.617025 -7.289053
v 5.872586 6.691524 -6.794273
v 4.169319 6.691524 -8.838036
v 3.691111 6.691524 -7.783834
vt 0.362792 0.640490
vt 0.389626 0.745500
vt 0.359237 0.776051
vt 0.321472 0.628264
vt 0.482788 0.768781
vt 0.497169 0.810272
vt 0.557558 0.701433
vt 0.598569 0.713976
vt 0.531277 0.598589
vt 0.561242 0.567909
vt 0.433363 0.575369
vt 0.426076 0.532065
vt 0.459243 0.671777
vt 0.734781 0.073154
vt 0.698571 0.135564
vt 0.662627 0.073000
vt 0.626417 0.135410
vt 0.590473 0.072847
vt 0.626683 0.010436
vt 0.698837 0.010590
vn 0.000000 1.000000 0.000000
vn 0.000000 1.000000 0.000000
vn 0.000000 1.000000 0.000000
vn 0.000000 1.000000 0.000000
vn -0.788675 0.500000 -0.357759
vn -0.788675 0.500000 -0.357759
vn -0.788675 0.500000 -0.357759
vn -0.788675 0.500000 -0.357759
vn -0.788675 -0.500000 -0.357759
vn -0.788675 -0.500000 -0.357759
vn -0.788675 -0.500000 -0.357759
vn -0.788675 -0.500000 -0.357759
vn -0.000000 -1.000000 -0.000000
vn -0.000000 -1.000000 -0.000000
vn -0.000000 -1.000000 -0.000000
vn -0.000000 -1.000000 -0.000000
vn 0.788675 -0.500000 0.357759
vn 0.788675 -0.500000 0.357759
vn 0.788675 -0.500000 0.357759
vn 0.788675 -0.500000 0.357759
vn 0.788675 0.500000 0.357759
vn 0.788675 0.500000 0.357759
vn 0.788675 0.500000 0.357759
vn 0.788675 0.500000 0.357759
vn 0.413105 0.000000 -0.910684
vn 0.413105 0.000000 -0.910684
vn 0.413105 0.000000 -0.910684
vn 0.413105 0.000000 -0.910683
vn 0.413104 0.000000 -0.910684
vn 0.413104 0.000000 -0.910684
vn 0.413104 0.000000 -0.910684
vn -0.413104 0.000000 0.910684
vn -0.413104 0.000000 0.910684
vn -0.413104 0.000000 0.910684
vn -0.413104 0.000000 0.910684
vn -0.413104 0.000000 0.910684
vn -0.413104 0.000000 0.910684
vn -0.413104 0.000000 0.910684
s off
usemtl initialShadingGroup
f 1/1/1 2/2/2 8/3/3 7/4/4
f 2/2/5 3/5/6 9/6/7 8/3/8
f 3/5/9 4/7/10 10/8/11 9/6/12
f 4/7/13 5/9/14 11/10/15 10/8/16
f 5/9/17 6/11/18 12/12/19 11/10/20
f 6/11/21 1/1/22 7/4/23 12/12/24
s 1
f 2/2/25 1/1/26 13/13/27
f 3/5/28 2/2/25 13/13/27
f 4/7/29 3/5/28 13/13/27
f 5/9/30 4/7/29 13/13/27
f 6/11/31 5/9/30 13/13/27
f 1/1/26 6/11/31 13/13/27
s 2
f 7/14/32 8/15/33 14/16/34
f 8/15/33 9/17/35 14/16/34
f 9/17/35 10/18/36 14/16/34
f 10/18/36 11/19/37 14/16/34
f 11/19/37 12/20/38 14/16/34
f 12/20/38 7/14/32 14/16/34
